<svg width="15" height="15" viewBox="0 0 15 15" fill="none" xmlns="http://www.w3.org/2000/svg">
<path d="M13.5068 0H3.51926C3.2139 0.000562309 2.91597 0.0991135 2.66525 0.282496C2.41452 0.465879 2.22293 0.725367 2.11606 1.02632L0.0450225 6.82895C0.0150075 6.91579 0 7.01053 0 7.10526V8.68421C0 9.55263 0.675338 10.2632 1.50075 10.2632H5.71036L4.86994 12.9237C4.71986 13.4053 4.7949 13.9342 5.07254 14.3447C5.35768 14.7553 5.8079 15 6.28814 15H7.49625C7.72136 15 7.93147 14.8974 8.07404 14.7158L11.6008 10.2632H13.4992C14.3247 10.2632 15 9.55263 15 8.68421V1.57895C15 0.710526 14.3247 0 13.4992 0H13.5068ZM10.5053 9.18947L7.15108 13.4211H6.28814L7.45873 9.72632C7.49519 9.60741 7.50457 9.48115 7.48614 9.35773C7.4677 9.2343 7.42195 9.11716 7.35258 9.01575C7.28321 8.91434 7.19216 8.83151 7.08678 8.77392C6.98139 8.71633 6.86462 8.6856 6.74587 8.68421H1.49325V7.24737L3.51176 1.57895H10.4977V9.18947H10.5053ZM13.5068 8.68421H12.006V1.57895H13.5068V8.68421Z" fill="white"/>
</svg>
