<svg width="20" height="20" viewBox="0 0 20 20" fill="none" xmlns="http://www.w3.org/2000/svg">
<path d="M18.6667 10C18.6667 10 14.935 15 10.3333 15C5.73167 15 2 10 2 10C2 10 5.73167 5 10.3333 5C14.935 5 18.6667 10 18.6667 10Z" stroke="white" stroke-width="1.25" stroke-miterlimit="10" stroke-linecap="round" stroke-linejoin="round"/>
<path d="M10.333 12.5C10.996 12.5 11.6319 12.2366 12.1008 11.7678C12.5696 11.2989 12.833 10.663 12.833 10C12.833 9.33696 12.5696 8.70107 12.1008 8.23223C11.6319 7.76339 10.996 7.5 10.333 7.5C9.66997 7.5 9.03408 7.76339 8.56524 8.23223C8.0964 8.70107 7.83301 9.33696 7.83301 10C7.83301 10.663 8.0964 11.2989 8.56524 11.7678C9.03408 12.2366 9.66997 12.5 10.333 12.5Z" stroke="white" stroke-width="1.25" stroke-miterlimit="10" stroke-linecap="round" stroke-linejoin="round"/>
</svg>
