<svg width="15" height="15" viewBox="0 0 15 15" fill="none" xmlns="http://www.w3.org/2000/svg">
<path d="M13.4925 4.73684H9.285L10.125 2.07632C10.275 1.59474 10.2 1.06579 9.9225 0.655263C9.6375 0.244737 9.1875 0 8.7075 0H7.5C7.275 0 7.065 0.102631 6.9225 0.28421L3.3975 4.73684H1.5C0.675 4.73684 0 5.44737 0 6.31579V13.4211C0 14.2895 0.675 15 1.5 15H11.4825C11.7877 14.9994 12.0855 14.9009 12.3361 14.7175C12.5867 14.5341 12.7782 14.2746 12.885 13.9737L14.955 8.17105C14.985 8.08421 15 7.98947 15 7.89474V6.31579C15 5.44737 14.325 4.73684 13.5 4.73684H13.4925ZM2.9925 13.4211H1.4925V6.31579H2.9925V13.4211ZM13.4925 7.75263L11.475 13.4211H4.4925V5.81053L7.845 1.57895H8.7075L7.5375 5.27368C7.50106 5.39259 7.49168 5.51885 7.51011 5.64227C7.52854 5.7657 7.57426 5.88284 7.6436 5.98425C7.71293 6.08566 7.80393 6.16849 7.90927 6.22608C8.0146 6.28367 8.13131 6.3144 8.25 6.31579H13.5V7.75263H13.4925Z" fill="white"/>
</svg>
