<svg width="18" height="14" viewBox="0 0 18 14" fill="none" xmlns="http://www.w3.org/2000/svg">
<path d="M13.2103 9.05031C14.2996 7.89405 14.7874 6.46047 14.5763 5.0364C14.3652 3.61233 13.4706 2.30279 12.0715 1.36976C10.6725 0.43673 8.87214 -0.0509732 7.03069 0.00422151C5.18923 0.0594162 3.44246 0.653438 2.13986 1.66745C0.837249 2.68145 0.0748641 4.04066 0.00522715 5.47315C-0.0644098 6.90563 0.563837 8.30575 1.76428 9.39339C2.96472 10.481 4.64882 11.176 6.47966 11.3392C8.3105 11.5024 10.1531 11.1219 11.6387 10.2737H11.6376C11.6706 10.3087 11.7073 10.3422 11.7478 10.3743L16.0789 13.7434C16.2898 13.9076 16.576 13.9999 16.8744 14C17.1728 14.0001 17.4591 13.9079 17.6702 13.7439C17.8812 13.5798 17.9999 13.3572 18 13.125C18.0001 12.8929 17.8817 12.6702 17.6707 12.506L13.3396 9.13695C13.2994 9.10526 13.2562 9.07688 13.2103 9.05031ZM13.5005 5.68647C13.5005 6.31852 13.3405 6.94438 13.0295 7.52832C12.7186 8.11226 12.2628 8.64284 11.6883 9.08977C11.1138 9.5367 10.4317 9.89122 9.681 10.1331C8.93033 10.375 8.12576 10.4995 7.31324 10.4995C6.50071 10.4995 5.69615 10.375 4.94547 10.1331C4.1948 9.89122 3.51272 9.5367 2.93818 9.08977C2.36364 8.64284 1.90788 8.11226 1.59695 7.52832C1.28601 6.94438 1.12597 6.31852 1.12597 5.68647C1.12597 4.40998 1.77784 3.18578 2.93818 2.28316C4.09851 1.38055 5.67227 0.873469 7.31324 0.873469C8.9542 0.873469 10.528 1.38055 11.6883 2.28316C12.8486 3.18578 13.5005 4.40998 13.5005 5.68647Z" fill="#99A1AF"/>
</svg>
