<svg width="24" height="24" viewBox="0 0 24 24" fill="none" xmlns="http://www.w3.org/2000/svg">
<path d="M4 3.5H13.5V4.5H4.5V19.5H19.5V10.5H20.5V20C20.5 20.1326 20.4473 20.2597 20.3535 20.3535C20.2597 20.4473 20.1326 20.5 20 20.5H4C3.86739 20.5 3.74025 20.4473 3.64648 20.3535C3.55272 20.2597 3.5 20.1326 3.5 20V4C3.5 3.86739 3.55272 3.74025 3.64648 3.64648C3.74025 3.55272 3.86739 3.5 4 3.5ZM9.36816 14.9004V14.8984L9.36914 14.8945C9.36838 14.8962 9.36897 14.8988 9.36816 14.9004ZM9.10156 14.6318H9.09961C9.10108 14.6311 9.103 14.6306 9.10449 14.6299L9.10156 14.6318ZM20.292 4.41406L11.0186 13.6875L9.62598 14.373L10.3105 12.9824L19.5859 3.70703L19.5869 3.70801L20.292 4.41406Z" fill="white" stroke="white"/>
</svg>
