<svg width="16" height="19" viewBox="0 0 16 19" fill="none" xmlns="http://www.w3.org/2000/svg">
<path d="M0 4.5H16M6 8.5V14.5M10 8.5V14.5M1 4.5L2 16.5C2 17.0304 2.21071 17.5391 2.58579 17.9142C2.96086 18.2893 3.46957 18.5 4 18.5H12C12.5304 18.5 13.0391 18.2893 13.4142 17.9142C13.7893 17.5391 14 17.0304 14 16.5L15 4.5M5 4.5V1.5C5 1.23478 5.10536 0.98043 5.29289 0.792893C5.48043 0.605357 5.73478 0.5 6 0.5H10C10.2652 0.5 10.5196 0.605357 10.7071 0.792893C10.8946 0.98043 11 1.23478 11 1.5V4.5" stroke="white" stroke-linecap="round" stroke-linejoin="round"/>
</svg>
